<?xml version="1.0" standalone="no"?>
<!DOCTYPE svg PUBLIC "-//W3C//DTD SVG 20010904//EN"
 "http://www.w3.org/TR/2001/REC-SVG-20010904/DTD/svg10.dtd">
<svg version="1.0" xmlns="http://www.w3.org/2000/svg"
 width="500.000000pt" height="500.000000pt" viewBox="0 0 500.000000 500.000000"
 preserveAspectRatio="xMidYMid meet">
<metadata>
Created by potrace 1.14, written by Peter Selinger 2001-2017
</metadata>
<g transform="translate(0.000000,500.000000) scale(0.100000,-0.100000)"
fill="#000000" stroke="none">
<path d="M1285 4310 l-30 -5 0 -1755 c-1 -965 3 -1757 7 -1760 11 -9 1003 -4
1078 4 36 4 81 9 100 12 112 12 144 17 235 36 570 117 971 458 1144 973 40
119 62 207 77 305 2 19 7 46 9 60 28 157 28 662 0 801 -3 13 -7 36 -10 52 -3
15 -7 39 -10 55 -24 133 -63 257 -121 380 -19 40 -34 75 -34 78 0 2 -19 35
-42 72 -267 429 -707 660 -1313 688 -161 8 -1049 11 -1090 4z m1080 -224 c33
-4 80 -9 105 -12 25 -3 52 -7 60 -9 8 -3 33 -7 55 -10 22 -4 81 -17 130 -30
355 -95 618 -303 778 -613 60 -115 121 -313 143 -462 3 -19 7 -45 9 -58 5 -32
17 -195 18 -268 l2 -61 -522 1 -523 1 -144 220 c-167 254 -507 772 -713 1084
-78 118 -140 218 -138 221 5 8 666 5 740 -4z m-519 -516 c88 -135 168 -257
177 -271 l17 -26 -269 0 -270 -1 -1 412 0 411 93 -140 c51 -77 164 -250 253
-385z m244 -390 c8 0 28 -22 45 -48 16 -26 103 -158 193 -295 89 -136 165
-253 168 -261 4 -11 -82 -13 -493 -12 l-498 1 -2 307 -3 307 28 3 c23 3 519 1
562 -2z m-110 -1023 c0 -160 -2 -288 -4 -286 -16 19 -416 569 -416 572 0 2 95
4 210 5 l210 0 0 -291z m536 -358 c0 -357 -3 -649 -6 -649 -3 0 -20 19 -37 43
-16 23 -112 155 -213 292 l-183 250 -2 345 c0 190 1 350 3 356 2 8 68 12 220
12 l218 0 0 -649z m1140 563 c-10 -119 -14 -153 -37 -267 -82 -408 -283 -706
-595 -882 -81 -46 -247 -115 -315 -132 -26 -6 -54 -13 -63 -17 -15 -6 -16 51
-16 689 l0 694 516 1 516 0 -6 -86z m-2085 -99 c35 -48 142 -193 237 -322
l172 -236 0 -351 0 -351 -240 0 -239 0 -1 674 c0 370 1 673 4 673 2 0 32 -39
67 -87z m690 -941 c90 -123 174 -238 186 -256 l22 -34 -42 -6 c-106 -15 -143
-18 -242 -20 -58 -2 -105 -1 -106 3 -3 23 -4 529 0 539 5 17 -9 34 182 -226z"/>
<path d="M1994 2830 c-31 -12 -54 -49 -54 -86 0 -64 69 -109 129 -84 73 30 72
144 -1 169 -36 13 -45 13 -74 1z"/>
</g>
</svg>
